<svg width="121" height="48" viewBox="0 0 121 48" fill="none" xmlns="http://www.w3.org/2000/svg">
<path d="M6.74885 19.286C5.10219 19.286 3.70685 18.9133 2.56285 18.168C1.41885 17.4053 0.638852 16.3913 0.222852 15.126L1.02885 14.658C1.35818 15.802 2.02552 16.712 3.03085 17.388C4.03619 18.0467 5.28419 18.376 6.77485 18.376C8.30019 18.376 9.48752 18.012 10.3369 17.284C11.2035 16.5387 11.6369 15.5767 11.6369 14.398C11.6369 13.358 11.2469 12.5347 10.4669 11.928C9.68685 11.3213 8.41285 10.7493 6.64485 10.212L4.82485 9.64C4.14885 9.36267 3.64619 9.13733 3.31685 8.964C2.53685 8.56533 1.96485 8.08867 1.60085 7.534C1.23685 6.97933 1.02885 6.24267 0.976852 5.324C0.976852 3.95467 1.48819 2.81067 2.51085 1.892C3.53352 0.973332 4.83352 0.513999 6.41085 0.513999C7.76285 0.513999 8.92419 0.860666 9.89485 1.554C10.8655 2.23 11.5849 3.14 12.0529 4.284L11.2729 4.726C10.4235 2.52467 8.80285 1.424 6.41085 1.424C5.02419 1.424 3.92352 1.80533 3.10885 2.568C2.31152 3.31333 1.91285 4.22333 1.91285 5.298C1.91285 6.442 2.39818 7.30867 3.36885 7.898C3.97552 8.24467 4.46952 8.496 4.85085 8.652C5.07619 8.73867 5.72619 8.964 6.80085 9.328C8.22219 9.796 9.34885 10.2553 10.1809 10.706C10.9782 11.122 11.5589 11.616 11.9229 12.188C12.3042 12.76 12.5209 13.488 12.5729 14.372C12.5729 15.8453 12.0442 17.0327 10.9869 17.934C9.92952 18.8353 8.51685 19.286 6.74885 19.286ZM21.6399 19H20.5999L13.7359 0.799999H14.7499L21.1199 17.804L27.4639 0.799999H28.5039L21.6399 19ZM32.2892 10.264V18.116H41.6492V19H31.3272V0.799999H41.5192V1.684H32.2892V9.38H40.8692V10.264H32.2892ZM43.576 0.799999H56.212V1.684H50.362V19H49.426V1.684H43.576V0.799999ZM60.295 0.799999V18.116H69.135V19H59.333V0.799999H60.295ZM86.1807 19H85.1667L83.2947 14.19H73.7527L71.8807 19H70.8667L77.9907 0.799999H79.0307L86.1807 19ZM78.5107 1.918L74.0907 13.306H82.9567L78.5107 1.918ZM101.336 17.284V0.799999H102.298V19H101.44L90.0782 2.516V19H89.1162V0.799999H90.0002L101.336 17.284ZM120.56 19H119.546L117.674 14.19H108.132L106.26 19H105.246L112.37 0.799999H113.41L120.56 19ZM112.89 1.918L108.47 13.306H117.336L112.89 1.918ZM11.9922 37.562C12.8936 37.9433 13.6042 38.524 14.1242 39.304C14.6442 40.084 14.9042 40.9593 14.9042 41.93C14.9042 43.334 14.4102 44.53 13.4222 45.518C12.4342 46.506 11.2382 47 9.83422 47H1.90422V28.8H9.23622C10.5709 28.8 11.7236 29.2853 12.6942 30.256C13.6476 31.2093 14.1242 32.3533 14.1242 33.688C14.1242 35.3867 13.4136 36.678 11.9922 37.562ZM9.23622 30.516H3.72422V36.86H9.23622C10.0682 36.86 10.7876 36.5567 11.3942 35.95C12.0009 35.3087 12.3042 34.5547 12.3042 33.688C12.3042 32.8387 12.0009 32.0933 11.3942 31.452C10.7876 30.828 10.0682 30.516 9.23622 30.516ZM3.72422 45.284H9.83422C10.7356 45.284 11.4982 44.9633 12.1222 44.322C12.7636 43.6807 13.0842 42.8833 13.0842 41.93C13.0842 40.994 12.7636 40.2053 12.1222 39.564C11.4982 38.9053 10.7356 38.576 9.83422 38.576H3.72422V45.284ZM32.0673 47H30.1433L28.4533 42.528H19.8213L18.1313 47H16.2073L23.2013 28.8H25.0733L32.0673 47ZM24.1373 31.062L20.4713 40.812H27.8033L24.1373 31.062ZM44.4922 37.562C45.3936 37.9433 46.1042 38.524 46.6242 39.304C47.1442 40.084 47.4042 40.9593 47.4042 41.93C47.4042 43.334 46.9102 44.53 45.9222 45.518C44.9342 46.506 43.7382 47 42.3342 47H34.4042V28.8H41.7362C43.0709 28.8 44.2236 29.2853 45.1942 30.256C46.1476 31.2093 46.6242 32.3533 46.6242 33.688C46.6242 35.3867 45.9136 36.678 44.4922 37.562ZM41.7362 30.516H36.2242V36.86H41.7362C42.5682 36.86 43.2876 36.5567 43.8942 35.95C44.5009 35.3087 44.8042 34.5547 44.8042 33.688C44.8042 32.8387 44.5009 32.0933 43.8942 31.452C43.2876 30.828 42.5682 30.516 41.7362 30.516ZM36.2242 45.284H42.3342C43.2356 45.284 43.9982 44.9633 44.6222 44.322C45.2636 43.6807 45.5842 42.8833 45.5842 41.93C45.5842 40.994 45.2636 40.2053 44.6222 39.564C43.9982 38.9053 43.2356 38.576 42.3342 38.576H36.2242V45.284ZM52.3473 38.68V45.284H61.1873V47H50.5273V28.8H61.0573V30.516H52.3473V36.964H60.4073V38.68H52.3473ZM76.0144 43.62V28.8H77.8344V47H76.2744L66.1344 32.18V47H64.3144V28.8H65.8744L76.0144 43.62ZM90.4883 47.312C87.7149 47.312 85.4356 46.402 83.6503 44.582C81.8476 42.7447 80.9463 40.5173 80.9463 37.9C80.9463 35.2827 81.8476 33.0553 83.6503 31.218C85.4356 29.398 87.7149 28.488 90.4883 28.488C92.1523 28.488 93.6863 28.8953 95.0903 29.71C96.4943 30.5073 97.5863 31.5907 98.3663 32.96L96.7543 33.896C96.1823 32.7867 95.3329 31.9027 94.2063 31.244C93.0796 30.5853 91.8403 30.256 90.4883 30.256C88.2003 30.256 86.3456 30.9927 84.9243 32.466C83.4856 33.9567 82.7663 35.768 82.7663 37.9C82.7663 40.032 83.4856 41.8433 84.9243 43.334C86.3456 44.8073 88.2003 45.544 90.4883 45.544C91.8403 45.544 93.0796 45.2147 94.2063 44.556C95.3329 43.8973 96.1823 43.0133 96.7543 41.904L98.3663 42.814C97.6209 44.1833 96.5376 45.2753 95.1163 46.09C93.6949 46.9047 92.1523 47.312 90.4883 47.312ZM116.413 44.582C114.593 46.402 112.366 47.312 109.731 47.312C107.097 47.312 104.869 46.402 103.049 44.582C101.229 42.7273 100.319 40.5 100.319 37.9C100.319 35.2827 101.229 33.064 103.049 31.244C104.869 29.4067 107.097 28.488 109.731 28.488C112.366 28.488 114.593 29.4067 116.413 31.244C118.233 33.064 119.143 35.2827 119.143 37.9C119.143 40.5 118.233 42.7273 116.413 44.582ZM102.139 37.9C102.139 40.0493 102.867 41.8607 104.323 43.334C105.779 44.8073 107.582 45.544 109.731 45.544C111.881 45.544 113.683 44.8073 115.139 43.334C116.595 41.8607 117.323 40.0493 117.323 37.9C117.323 35.768 116.595 33.9653 115.139 32.492C113.683 31.0013 111.881 30.256 109.731 30.256C107.582 30.256 105.779 31.0013 104.323 32.492C102.867 33.9653 102.139 35.768 102.139 37.9Z" fill="#413B2E"/>
</svg>
