<svg width="350" height="52" viewBox="0 0 350 52" fill="none" xmlns="http://www.w3.org/2000/svg">
<rect width="350" height="52" fill="black"/>
<g clip-path="url(#clip0_62_3448)">
<path d="M175.79 26.3751V31.7452H174.14V18.4644H178.43C179.475 18.4644 180.465 18.8686 181.235 19.6192C182.005 20.3121 182.39 21.3515 182.39 22.4486C182.39 23.5457 182.005 24.5273 181.235 25.278C180.465 26.0287 179.53 26.4329 178.43 26.4329L175.79 26.3751ZM175.79 20.0812V24.7006H178.54C179.145 24.7006 179.75 24.4696 180.135 24.0077C181.015 23.1415 181.015 21.698 180.19 20.8318L180.135 20.7741C179.695 20.3121 179.145 20.0234 178.54 20.0812H175.79Z" fill="white"/>
<path d="M186.185 22.3911C187.395 22.3911 188.33 22.7376 189.045 23.4305C189.76 24.1234 190.09 25.0473 190.09 26.2021V31.7454H188.55V30.4751H188.495C187.835 31.5145 186.9 32.0342 185.8 32.0342C184.865 32.0342 184.04 31.7454 183.38 31.168C182.775 30.5906 182.39 29.7822 182.39 28.916C182.39 27.9922 182.72 27.2415 183.38 26.6641C184.04 26.0867 184.975 25.8557 186.075 25.8557C187.065 25.8557 187.835 26.0289 188.44 26.4331V26.0289C188.44 25.4515 188.22 24.8741 187.78 24.5276C187.34 24.1234 186.79 23.8924 186.185 23.8924C185.25 23.8924 184.535 24.2966 184.04 25.105L182.61 24.1811C183.49 22.9685 184.645 22.3911 186.185 22.3911ZM184.095 28.9738C184.095 29.4357 184.315 29.8399 184.645 30.0709C185.03 30.3596 185.47 30.5328 185.91 30.5328C186.57 30.5328 187.23 30.2441 187.725 29.7244C188.275 29.2048 188.55 28.5696 188.55 27.8767C188.055 27.4725 187.34 27.2415 186.405 27.2415C185.745 27.2415 185.195 27.4147 184.755 27.7612C184.315 28.0499 184.095 28.4541 184.095 28.9738Z" fill="white"/>
<path d="M199 22.6797L193.555 35.7873H191.905L193.94 31.2256L190.365 22.7374H192.125L194.71 29.2624H194.765L197.295 22.7374H199V22.6797Z" fill="white"/>
<path d="M169.245 25.2207C169.245 24.701 169.19 24.1813 169.135 23.6616H162.26V26.6065H166.165C166 27.5304 165.505 28.3965 164.735 28.9162V30.8217H167.1C168.475 29.4936 169.245 27.5304 169.245 25.2207Z" fill="#4285F4"/>
<path d="M162.26 32.6692C164.24 32.6692 165.89 31.9763 167.1 30.8214L164.735 28.9159C164.075 29.3779 163.25 29.6666 162.26 29.6666C160.39 29.6666 158.74 28.3385 158.19 26.4907H155.77V28.454C157.035 31.0524 159.51 32.6692 162.26 32.6692Z" fill="#34A853"/>
<path d="M158.19 26.4907C157.86 25.5668 157.86 24.5274 158.19 23.5458V21.5825H155.77C154.725 23.719 154.725 26.2597 155.77 28.4539L158.19 26.4907Z" fill="#FBBC04"/>
<path d="M162.26 20.4276C163.305 20.4276 164.295 20.8318 165.065 21.5825L167.155 19.3882C165.835 18.1179 164.075 17.3672 162.315 17.425C159.565 17.425 157.035 19.0418 155.825 21.6402L158.245 23.6035C158.74 21.7557 160.39 20.4276 162.26 20.4276Z" fill="#EA4335"/>
</g>
<defs>
<clipPath id="clip0_62_3448">
<rect width="44" height="22" fill="white" transform="translate(155 15)"/>
</clipPath>
</defs>
</svg>
