<svg width="251" height="64" viewBox="0 0 251 64" fill="none" xmlns="http://www.w3.org/2000/svg">
<rect width="250.667" height="64" transform="translate(0.333008)" fill="black"/>
<g clip-path="url(#clip0_45_6)">
<path d="M124.185 32.546V40.357H121.71V21.0394H128.145C129.712 21.0394 131.197 21.6274 132.352 22.7192C133.507 23.7271 134.085 25.2389 134.085 26.8347C134.085 28.4305 133.507 29.8583 132.352 30.9502C131.197 32.0421 129.795 32.63 128.145 32.63L124.185 32.546ZM124.185 23.3911V30.1103H128.31C129.217 30.1103 130.125 29.7743 130.702 29.1024C132.022 27.8426 132.022 25.7428 130.785 24.483L130.702 24.399C130.042 23.7271 129.217 23.3071 128.31 23.3911H124.185Z" fill="white"/>
<path d="M139.777 26.7506C141.592 26.7506 142.995 27.2545 144.067 28.2624C145.14 29.2703 145.635 30.6141 145.635 32.2939V40.3569H143.325V38.5091H143.242C142.252 40.021 140.85 40.7769 139.2 40.7769C137.797 40.7769 136.56 40.3569 135.57 39.517C134.662 38.6771 134.085 37.5013 134.085 36.2414C134.085 34.8976 134.58 33.8057 135.57 32.9658C136.56 32.1259 137.962 31.79 139.612 31.79C141.097 31.79 142.252 32.0419 143.16 32.6299V32.0419C143.16 31.2021 142.83 30.3622 142.17 29.8582C141.51 29.2703 140.685 28.9343 139.777 28.9343C138.375 28.9343 137.302 29.5223 136.56 30.6981L134.415 29.3543C135.735 27.5905 137.467 26.7506 139.777 26.7506ZM136.642 36.3254C136.642 36.9973 136.972 37.5853 137.467 37.9212C138.045 38.3412 138.705 38.5931 139.365 38.5931C140.355 38.5931 141.345 38.1732 142.087 37.4173C142.912 36.6614 143.325 35.7375 143.325 34.7296C142.582 34.1417 141.51 33.8057 140.107 33.8057C139.117 33.8057 138.292 34.0577 137.632 34.5616C136.972 34.9816 136.642 35.5695 136.642 36.3254Z" fill="white"/>
<path d="M159 27.1707L150.833 46.2363H148.358L151.41 39.6011L146.048 27.2546H148.688L152.565 36.7455H152.648L156.443 27.2546H159V27.1707Z" fill="white"/>
<path d="M114.367 30.8661C114.367 30.1102 114.285 29.3543 114.202 28.5984H103.89V32.8819H109.747C109.5 34.2257 108.757 35.4855 107.602 36.2414V39.0131H111.15C113.212 37.0813 114.367 34.2257 114.367 30.8661Z" fill="#4285F4"/>
<path d="M103.89 41.7007C106.86 41.7007 109.335 40.6929 111.15 39.0131L107.603 36.2414C106.613 36.9133 105.375 37.3333 103.89 37.3333C101.085 37.3333 98.6103 35.4015 97.7853 32.7139H94.1553V35.5695C96.0528 39.349 99.7653 41.7007 103.89 41.7007Z" fill="#34A853"/>
<path d="M97.7851 32.7139C97.2901 31.3701 97.2901 29.8583 97.7851 28.4305V25.5748H94.1551C92.5876 28.6824 92.5876 32.378 94.1551 35.5696L97.7851 32.7139Z" fill="#FBBC04"/>
<path d="M103.89 23.895C105.457 23.895 106.942 24.483 108.097 25.5748L111.232 22.3832C109.252 20.5355 106.612 19.4436 103.972 19.5276C99.8473 19.5276 96.0523 21.8793 94.2373 25.6588L97.8673 28.5145C98.6098 25.8268 101.085 23.895 103.89 23.895Z" fill="#EA4335"/>
</g>
<defs>
<clipPath id="clip0_45_6">
<rect width="66" height="32" fill="white" transform="translate(93 16)"/>
</clipPath>
</defs>
</svg>
