<svg width="350" height="52" viewBox="0 0 350 52" fill="none" xmlns="http://www.w3.org/2000/svg">
<rect width="350" height="52" fill="#FFC439"/>
<g clip-path="url(#clip0_62_3438)">
<path d="M160.18 18.5991C160.005 18.5991 159.857 18.7287 159.829 18.9052L157.804 32.012C157.797 32.0599 157.8 32.1088 157.813 32.1555C157.826 32.2021 157.848 32.2453 157.879 32.2821C157.91 32.319 157.948 32.3485 157.992 32.3688C158.035 32.3891 158.082 32.3996 158.129 32.3996H160.53C160.705 32.3996 160.854 32.2697 160.881 32.0935L161.476 28.2446C161.503 28.0683 161.652 27.9385 161.827 27.9385H164.01C166.561 27.9385 168.727 26.0387 169.122 23.4645C169.521 20.8685 167.534 18.6048 164.718 18.5991H160.18ZM162.514 21.5251H164.261C165.699 21.5251 166.168 22.3912 166.02 23.349C165.872 24.3088 165.144 25.0159 163.753 25.0159H161.975L162.514 21.5251ZM174.007 22.416C173.4 22.4183 172.702 22.5451 171.919 22.8781C170.122 23.6425 169.259 25.2223 168.893 26.374C168.893 26.374 167.727 29.8879 170.362 31.8184C170.362 31.8184 172.806 33.6769 175.557 31.7039L175.509 32.012C175.502 32.0599 175.505 32.1088 175.518 32.1554C175.531 32.2019 175.553 32.2451 175.584 32.282C175.615 32.3188 175.653 32.3484 175.696 32.3687C175.739 32.389 175.786 32.3995 175.833 32.3996H178.113C178.288 32.3996 178.437 32.2697 178.464 32.0935L179.851 23.1179C179.858 23.07 179.855 23.0211 179.842 22.9744C179.83 22.9278 179.807 22.8845 179.776 22.8476C179.745 22.8108 179.707 22.7811 179.664 22.7608C179.621 22.7405 179.574 22.7299 179.526 22.7298H177.247C177.072 22.7298 176.923 22.8597 176.896 23.0359L176.821 23.5191C176.821 23.5191 175.826 22.4091 174.007 22.416ZM174.081 25.251C174.343 25.251 174.582 25.2879 174.797 25.3583C175.781 25.6806 176.338 26.6451 176.177 27.6905C175.978 28.9777 174.944 29.9256 173.617 29.9256C173.356 29.9256 173.116 29.8889 172.901 29.8185C171.918 29.4962 171.357 28.5317 171.518 27.4863C171.717 26.1991 172.755 25.251 174.081 25.251Z" fill="#003087"/>
<path d="M193.009 18.5991C192.834 18.5991 192.685 18.7287 192.658 18.9052L190.633 32.012C190.626 32.0599 190.628 32.1088 190.641 32.1555C190.654 32.2021 190.677 32.2453 190.708 32.2821C190.739 32.319 190.777 32.3485 190.82 32.3688C190.863 32.3891 190.91 32.3996 190.958 32.3996H193.359C193.534 32.3996 193.683 32.2697 193.71 32.0935L194.305 28.2446C194.332 28.0683 194.481 27.9385 194.656 27.9385H196.839C199.39 27.9385 201.555 26.0387 201.951 23.4645C202.35 20.8685 200.363 18.6048 197.547 18.5991H193.009ZM195.343 21.5251H197.09C198.528 21.5251 198.996 22.3912 198.848 23.349C198.7 24.3088 197.973 25.0159 196.582 25.0159H194.804L195.343 21.5251ZM206.835 22.416C206.229 22.4183 205.531 22.5451 204.748 22.8781C202.951 23.6425 202.088 25.2223 201.721 26.374C201.721 26.374 200.556 29.8879 203.191 31.8184C203.191 31.8184 205.634 33.6769 208.385 31.7039L208.338 32.012C208.33 32.0599 208.333 32.1088 208.346 32.1555C208.359 32.2021 208.382 32.2453 208.413 32.2821C208.444 32.319 208.482 32.3485 208.525 32.3688C208.568 32.3891 208.615 32.3996 208.663 32.3996H210.942C211.117 32.3996 211.266 32.2697 211.293 32.0935L212.68 23.1179C212.688 23.07 212.685 23.021 212.672 22.9743C212.659 22.9276 212.636 22.8843 212.605 22.8474C212.575 22.8106 212.536 22.7809 212.493 22.7606C212.45 22.7403 212.403 22.7298 212.355 22.7298H210.076C209.901 22.7298 209.752 22.8597 209.725 23.0359L209.65 23.5191C209.65 23.5191 208.654 22.4091 206.835 22.416ZM206.91 25.251C207.171 25.251 207.411 25.2879 207.626 25.3583C208.609 25.6806 209.167 26.6451 209.005 27.6905C208.806 28.9777 207.772 29.9256 206.446 29.9256C206.184 29.9256 205.945 29.8889 205.73 29.8185C204.746 29.4962 204.185 28.5317 204.346 27.4863C204.545 26.1991 205.583 25.251 206.91 25.251Z" fill="#0070E0"/>
<path d="M180.932 22.7297C180.752 22.7297 180.623 22.9098 180.678 23.0853L183.178 31.0011L180.918 34.7314C180.808 34.9125 180.936 35.1464 181.144 35.1464H183.815C183.892 35.1464 183.967 35.1262 184.033 35.0879C184.1 35.0495 184.155 34.9944 184.195 34.9277L191.175 23.1422C191.282 22.9611 191.154 22.7295 190.947 22.7295H188.276C188.199 22.7296 188.123 22.7501 188.056 22.7892C187.989 22.8282 187.934 22.8843 187.894 22.9521L185.147 27.6866L183.752 22.9872C183.707 22.8343 183.568 22.7295 183.412 22.7295L180.932 22.7297Z" fill="#003087"/>
<path d="M215.27 18.5991C215.096 18.5991 214.947 18.729 214.919 18.9052L212.894 32.0115C212.887 32.0594 212.889 32.1084 212.902 32.1551C212.915 32.2018 212.938 32.2451 212.969 32.282C213 32.3189 213.038 32.3485 213.081 32.3688C213.124 32.3891 213.171 32.3996 213.219 32.3996H215.62C215.795 32.3996 215.944 32.2697 215.971 32.0935L217.996 18.9867C218.003 18.9389 218 18.89 217.988 18.8434C217.975 18.7968 217.952 18.7536 217.921 18.7168C217.89 18.68 217.852 18.6504 217.809 18.6301C217.766 18.6098 217.719 18.5992 217.672 18.5991H215.27Z" fill="#0070E0"/>
<path d="M140.16 18.5991C140.005 18.5993 139.856 18.6557 139.738 18.7583C139.621 18.8609 139.543 19.0029 139.519 19.1588L138.453 26.059C138.502 25.7367 138.774 25.4992 139.094 25.4992H142.218C145.361 25.4992 148.029 23.1586 148.516 19.9868C148.552 19.75 148.573 19.5109 148.578 19.2713C147.779 18.8438 146.84 18.5991 145.812 18.5991H140.16Z" fill="#001C64"/>
<path d="M148.578 19.2715C148.573 19.5111 148.552 19.7502 148.516 19.987C148.029 23.1588 145.361 25.4994 142.218 25.4994H139.094C138.775 25.4994 138.502 25.7366 138.453 26.0591L137.473 32.3998L136.859 36.3776C136.847 36.4544 136.851 36.533 136.872 36.6079C136.892 36.6828 136.929 36.7522 136.978 36.8114C137.028 36.8706 137.089 36.9181 137.159 36.9507C137.228 36.9832 137.303 37.0001 137.379 37H140.77C140.924 36.9999 141.074 36.9435 141.192 36.8409C141.309 36.7383 141.387 36.5963 141.411 36.4403L142.304 30.6594C142.328 30.5034 142.406 30.3613 142.524 30.2587C142.642 30.1561 142.791 30.0997 142.946 30.0997H144.942C148.086 30.0997 150.753 27.7591 151.241 24.5872C151.587 22.336 150.476 20.2874 148.578 19.2715Z" fill="#0070E0"/>
<path d="M136.308 14C135.989 14 135.716 14.2372 135.667 14.5592L133.006 31.7777C132.956 32.1046 133.203 32.4002 133.528 32.4002H137.473L138.452 26.0596L139.518 19.1595C139.543 19.0035 139.62 18.8615 139.738 18.7589C139.856 18.6563 140.005 18.5999 140.16 18.5997H145.812C146.84 18.5997 147.778 18.8446 148.577 19.2719C148.632 16.3841 146.297 14 143.088 14H136.308Z" fill="#003087"/>
</g>
<defs>
<clipPath id="clip0_62_3438">
<rect width="85" height="23" fill="white" transform="translate(133 14)"/>
</clipPath>
</defs>
</svg>
