<svg width="252" height="64" viewBox="0 0 252 64" fill="none" xmlns="http://www.w3.org/2000/svg">
<rect width="250.667" height="64" transform="translate(0.666992)" fill="#FFC439"/>
<g clip-path="url(#clip0_45_5)">
<path d="M105.453 22.1993C105.219 22.1993 105.02 22.374 104.983 22.6119L102.267 40.2776C102.257 40.3421 102.261 40.4081 102.278 40.4709C102.296 40.5338 102.326 40.592 102.368 40.6417C102.409 40.6913 102.46 40.7312 102.518 40.7585C102.576 40.7858 102.639 40.8 102.703 40.8H105.923C106.158 40.8 106.357 40.625 106.394 40.3874L107.192 35.1997C107.228 34.9622 107.428 34.7872 107.662 34.7872H110.59C114.012 34.7872 116.916 32.2266 117.447 28.757C117.982 25.2581 115.317 22.2069 111.539 22.1993H105.453ZM108.584 26.143H110.927C112.856 26.143 113.484 27.3104 113.285 28.6013C113.087 29.895 112.111 30.848 110.245 30.848H107.861L108.584 26.143ZM123.997 27.3438C123.184 27.347 122.248 27.5179 121.198 27.9667C118.788 28.997 117.63 31.1263 117.139 32.6786C117.139 32.6786 115.575 37.4146 119.109 40.0166C119.109 40.0166 122.386 42.5215 126.076 39.8623L126.012 40.2776C126.003 40.3421 126.006 40.408 126.024 40.4708C126.041 40.5336 126.071 40.5918 126.113 40.6414C126.154 40.691 126.205 40.7309 126.263 40.7583C126.321 40.7857 126.384 40.7999 126.447 40.8H129.505C129.739 40.8 129.939 40.625 129.975 40.3874L131.835 28.2899C131.845 28.2254 131.841 28.1594 131.824 28.0965C131.807 28.0336 131.777 27.9753 131.735 27.9256C131.694 27.8759 131.643 27.836 131.585 27.8086C131.527 27.7811 131.464 27.7669 131.4 27.7668H128.343C128.108 27.7668 127.909 27.9419 127.872 28.1794L127.772 28.8306C127.772 28.8306 126.437 27.3345 123.997 27.3438ZM124.097 31.1649C124.448 31.1649 124.769 31.2147 125.057 31.3096C126.377 31.744 127.125 33.0439 126.908 34.4529C126.641 36.1879 125.254 37.4654 123.475 37.4654C123.124 37.4654 122.803 37.416 122.515 37.3211C121.196 36.8867 120.443 35.5868 120.66 34.1778C120.927 32.4428 122.318 31.1649 124.097 31.1649Z" fill="#003087"/>
<path d="M149.483 22.1993C149.248 22.1993 149.049 22.374 149.012 22.6119L146.296 40.2776C146.286 40.3421 146.29 40.4081 146.308 40.4709C146.325 40.5338 146.355 40.592 146.397 40.6417C146.438 40.6913 146.49 40.7312 146.547 40.7585C146.605 40.7858 146.668 40.8 146.732 40.8H149.953C150.187 40.8 150.387 40.625 150.423 40.3874L151.221 35.1997C151.257 34.9622 151.457 34.7872 151.692 34.7872H154.62C158.041 34.7872 160.945 32.2266 161.475 28.757C162.01 25.2581 159.346 22.2069 155.569 22.1993H149.483ZM152.614 26.143H154.956C156.885 26.143 157.513 27.3104 157.315 28.6013C157.116 29.895 156.141 30.848 154.275 30.848H151.89L152.614 26.143ZM168.026 27.3438C167.213 27.347 166.277 27.5179 165.226 27.9667C162.817 28.997 161.659 31.1263 161.168 32.6786C161.168 32.6786 159.604 37.4146 163.138 40.0166C163.138 40.0166 166.415 42.5215 170.105 39.8623L170.042 40.2776C170.032 40.3421 170.036 40.4081 170.053 40.4709C170.07 40.5338 170.101 40.592 170.142 40.6417C170.184 40.6913 170.235 40.7312 170.293 40.7585C170.351 40.7858 170.414 40.8 170.477 40.8H173.534C173.769 40.8 173.968 40.625 174.005 40.3874L175.866 28.2899C175.875 28.2253 175.872 28.1593 175.854 28.0963C175.837 28.0334 175.807 27.9751 175.765 27.9253C175.724 27.8756 175.672 27.8357 175.615 27.8083C175.557 27.781 175.494 27.7668 175.43 27.7668H172.372C172.138 27.7668 171.938 27.9419 171.902 28.1794L171.802 28.8306C171.802 28.8306 170.466 27.3345 168.026 27.3438ZM168.126 31.1649C168.477 31.1649 168.798 31.2147 169.086 31.3096C170.406 31.744 171.154 33.0439 170.937 34.4529C170.67 36.1879 169.283 37.4654 167.504 37.4654C167.153 37.4654 166.832 37.416 166.544 37.3211C165.225 36.8867 164.472 35.5868 164.689 34.1778C164.956 32.4428 166.347 31.1649 168.126 31.1649Z" fill="#0070E0"/>
<path d="M133.286 27.7668C133.043 27.7668 132.871 28.0095 132.945 28.2461L136.297 38.9152L133.266 43.943C133.119 44.1871 133.29 44.5023 133.57 44.5023H137.152C137.255 44.5023 137.355 44.4751 137.444 44.4234C137.534 44.3718 137.608 44.2974 137.661 44.2075L147.023 28.3227C147.167 28.0786 146.995 27.7665 146.717 27.7665H143.135C143.032 27.7666 142.93 27.7943 142.84 27.8469C142.75 27.8995 142.675 27.9752 142.623 28.0665L138.938 34.4478L137.067 28.1138C137.006 27.9077 136.821 27.7665 136.611 27.7665L133.286 27.7668Z" fill="#003087"/>
<path d="M179.339 22.1993C179.105 22.1993 178.905 22.3744 178.868 22.6119L176.152 40.2769C176.142 40.3415 176.146 40.4075 176.163 40.4705C176.18 40.5334 176.211 40.5917 176.252 40.6415C176.294 40.6912 176.345 40.7311 176.403 40.7585C176.461 40.7858 176.524 40.8 176.587 40.8H179.808C180.042 40.8 180.242 40.625 180.279 40.3874L182.995 22.7217C183.004 22.6573 183.001 22.5914 182.983 22.5286C182.966 22.4658 182.936 22.4076 182.894 22.3579C182.853 22.3083 182.802 22.2684 182.744 22.2411C182.686 22.2137 182.623 22.1994 182.56 22.1993H179.339Z" fill="#0070E0"/>
<path d="M78.6035 22.1993C78.396 22.1995 78.1954 22.2756 78.0377 22.4139C77.88 22.5521 77.7755 22.7436 77.7431 22.9538L76.3135 32.2539C76.3801 31.8196 76.745 31.4995 77.1739 31.4995H81.363C85.5791 31.4995 89.1566 28.3448 89.8103 24.0697C89.859 23.7505 89.8865 23.4283 89.8928 23.1053C88.8214 22.5291 87.5628 22.1993 86.1837 22.1993H78.6035Z" fill="#001C64"/>
<path d="M89.893 23.1057C89.8867 23.4287 89.8591 23.7509 89.8105 24.07C89.1568 28.3452 85.5789 31.4999 81.3632 31.4999H77.174C76.7455 31.4999 76.3803 31.8196 76.3136 32.2543L74.9991 40.8004L74.1758 46.1617C74.1597 46.2653 74.1657 46.3712 74.1934 46.4722C74.2212 46.5732 74.2699 46.6667 74.3363 46.7465C74.4027 46.8263 74.4852 46.8903 74.5781 46.9342C74.6709 46.9781 74.772 47.0008 74.8743 47.0007H79.4212C79.6287 47.0006 79.8293 46.9245 79.987 46.7862C80.1447 46.6479 80.2492 46.4565 80.2816 46.2463L81.4793 38.4546C81.5117 38.2443 81.6163 38.0528 81.7741 37.9145C81.932 37.7762 82.1328 37.7002 82.3403 37.7002H85.0174C89.2335 37.7002 92.811 34.5455 93.4648 30.2704C93.9289 27.2362 92.4391 24.475 89.893 23.1057Z" fill="#0070E0"/>
<path d="M73.4373 16.0002C73.0088 16.0002 72.6435 16.32 72.5769 16.754L69.0088 39.9616C68.9411 40.4021 69.273 40.8006 69.7079 40.8006H74.9992L76.313 32.2545L77.7426 22.9543C77.775 22.7441 77.8795 22.5527 78.0372 22.4144C78.1949 22.2761 78.3955 22.2001 78.603 22.1999H86.1832C87.5626 22.1999 88.8209 22.53 89.8923 23.1059C89.9657 19.2137 86.8345 16.0002 82.5295 16.0002H73.4373Z" fill="#003087"/>
</g>
<defs>
<clipPath id="clip0_45_5">
<rect width="114" height="31" fill="white" transform="translate(69 16)"/>
</clipPath>
</defs>
</svg>
