<svg width="251" height="64" viewBox="0 0 251 64" fill="none" xmlns="http://www.w3.org/2000/svg">
<rect width="250.667" height="64" fill="#592FF4"/>
<g clip-path="url(#clip0_45_4)">
<path d="M104.341 28.3931C103.643 26.9729 102.317 26.0532 100.316 26.0532C99.7032 26.064 99.1008 26.211 98.5555 26.483C98.0102 26.7551 97.5367 27.1448 97.1714 27.6222L97.097 27.7078V22.1217C97.097 22.0894 97.0837 22.0585 97.0602 22.0356C97.0366 22.0128 97.0046 22 96.9713 22H94.1473C94.1148 22.0012 94.0841 22.0145 94.0615 22.0372C94.0389 22.0599 94.0263 22.0902 94.0264 22.1217V38.1091C94.0264 38.1402 94.0391 38.17 94.0618 38.192C94.0845 38.214 94.1152 38.2263 94.1473 38.2263H97.1714C97.2039 38.2263 97.2352 38.2141 97.2586 38.1923C97.282 38.1704 97.2958 38.1406 97.297 38.1091V31.2921C97.2812 30.9886 97.3319 30.6852 97.4458 30.402C97.5598 30.1188 97.7344 29.8622 97.9582 29.6492C98.182 29.4362 98.4498 29.2716 98.744 29.1662C99.0382 29.0608 99.3521 29.0171 99.6651 29.0379C101.261 29.0379 101.661 30.3093 101.661 31.6078V38.1181C101.661 38.1492 101.674 38.179 101.696 38.201C101.719 38.223 101.75 38.2353 101.782 38.2353H104.801C104.834 38.2354 104.865 38.2232 104.889 38.2013C104.912 38.1794 104.926 38.1496 104.927 38.1181V31.22C104.932 30.9881 104.921 30.7562 104.894 30.5257C104.845 29.7882 104.657 29.0656 104.341 28.3931Z" fill="white"/>
<path d="M89.2108 30.7511C89.2108 30.7511 87.6709 30.3994 87.1033 30.2597C86.5357 30.1199 85.5447 29.8088 85.5447 29.0919C85.5447 28.3751 86.3449 28.1316 87.1545 28.1316C87.964 28.1316 88.8666 28.321 88.9363 29.1956C88.9398 29.2267 88.955 29.2555 88.9791 29.2763C89.0032 29.2971 89.0344 29.3085 89.0666 29.3083H92.0488H92.1L92.1418 29.2813C92.1539 29.2686 92.163 29.2537 92.1686 29.2373C92.1742 29.221 92.1762 29.2037 92.1744 29.1866C91.9883 26.3958 89.4621 25.3994 87.1312 25.3994C84.3677 25.3994 82.3485 27.1668 82.3485 29.1145C82.3485 30.5347 82.7626 31.8692 86.0239 32.798C86.5962 32.9603 87.3731 33.1677 88.0524 33.3525C88.8666 33.5735 89.3085 33.9071 89.3085 34.4301C89.3085 35.0387 88.378 35.4625 87.5034 35.4625C86.2054 35.4625 85.2842 35.0117 85.2098 34.1596C85.2053 34.1293 85.1896 34.1016 85.1656 34.0817C85.1416 34.0618 85.1111 34.051 85.0795 34.0514H82.102H82.0508L82.0089 34.0784C81.9969 34.0903 81.9874 34.1044 81.981 34.1199C81.9746 34.1354 81.9714 34.1519 81.9717 34.1686C82.1066 36.8016 84.7352 38.2263 87.1824 38.2263C90.8299 38.2263 92.4768 36.238 92.4768 34.376C92.5047 33.5013 92.3 31.5085 89.2108 30.7511Z" fill="white"/>
<path d="M127.603 26.0351C126.902 26.0572 126.215 26.2305 125.592 26.5425C124.969 26.8545 124.426 27.2973 124.002 27.8386V26.1388C124.002 26.1077 123.989 26.0779 123.967 26.0559C123.944 26.034 123.913 26.0216 123.881 26.0216H121.053C121.021 26.0216 120.99 26.034 120.967 26.0559C120.944 26.0779 120.932 26.1077 120.932 26.1388V41.8286C120.932 41.8597 120.944 41.8896 120.967 41.9115C120.99 41.9335 121.021 41.9459 121.053 41.9459H124.081C124.113 41.9459 124.144 41.9335 124.167 41.9115C124.19 41.8896 124.202 41.8597 124.202 41.8286V36.6754H124.249C124.67 37.1817 125.206 37.5865 125.815 37.8579C126.425 38.1294 127.091 38.2601 127.761 38.2398C130.99 38.2398 133.684 35.6429 133.684 32.1352C133.702 31.3468 133.558 30.5628 133.262 29.8284C132.965 29.094 132.521 28.4238 131.956 27.8567C131.39 27.2895 130.715 26.8365 129.968 26.5238C129.221 26.2112 128.417 26.0451 127.603 26.0351ZM127.324 35.2506C126.686 35.2659 126.058 35.0966 125.52 34.7643C124.982 34.4321 124.558 33.952 124.303 33.3853C124.048 32.8187 123.972 32.1911 124.087 31.5828C124.201 30.9745 124.5 30.4131 124.945 29.9702C125.39 29.5272 125.962 29.2229 126.586 29.096C127.211 28.9691 127.86 29.0254 128.451 29.2577C129.043 29.4901 129.549 29.8879 129.906 30.4004C130.263 30.913 130.454 31.5169 130.455 32.1352C130.461 32.5392 130.385 32.9404 130.231 33.3157C130.077 33.6911 129.848 34.0333 129.557 34.3227C129.266 34.6122 128.919 34.8431 128.536 35.0023C128.153 35.1616 127.741 35.2459 127.324 35.2506Z" fill="white"/>
<path d="M111.966 25.3453C110.032 25.2972 108.14 25.8958 106.607 27.0406H106.574C106.516 27.0792 106.475 27.1379 106.459 27.2049C106.443 27.2719 106.455 27.3421 106.491 27.4012L107.607 29.2633C107.629 29.298 107.658 29.3277 107.692 29.3503C107.727 29.3729 107.766 29.3878 107.807 29.394C107.847 29.4013 107.889 29.3998 107.928 29.3897C107.967 29.3795 108.004 29.361 108.035 29.3354L108.124 29.2633C108.705 28.8124 109.636 28.1587 111.892 27.9874C112.455 27.9197 113.026 27.9691 113.568 28.1324C114.109 28.2956 114.609 28.569 115.032 28.9342C115.489 29.3795 115.849 29.9098 116.089 30.4933C116.328 31.0768 116.444 31.7012 116.428 32.3291C116.428 34.7953 114.93 36.3463 112.52 36.3868C110.534 36.3868 109.203 35.3724 109.203 33.8936C109.207 33.5278 109.309 33.1693 109.499 32.8532C109.689 32.5371 109.961 32.2742 110.287 32.0902C110.341 32.0521 110.379 31.9967 110.394 31.9338C110.41 31.871 110.401 31.8049 110.371 31.7475L109.37 29.9125C109.352 29.8798 109.326 29.851 109.296 29.8278C109.266 29.8046 109.231 29.7874 109.194 29.7773C109.156 29.7661 109.116 29.7628 109.077 29.7674C109.037 29.7721 109 29.7847 108.966 29.8043C108.198 30.1912 107.561 30.7834 107.129 31.5105C106.698 32.2377 106.491 33.0694 106.532 33.9071C106.626 36.8016 109.105 39.0108 112.334 39.101H112.715C113.605 39.0997 114.485 38.925 115.303 38.5873C116.121 38.2496 116.861 37.7559 117.478 37.1354C118.096 36.5149 118.578 35.7804 118.896 34.9756C119.214 34.1708 119.362 33.3122 119.331 32.4508C119.331 29.0243 116.749 25.3453 111.966 25.3453Z" fill="white"/>
<path d="M145.612 27.1127H143.691C143.645 27.1127 143.601 27.1302 143.569 27.1615C143.537 27.1928 143.519 27.2352 143.519 27.2795V31.1884C143.52 31.2319 143.538 31.2732 143.571 31.3035C143.603 31.3338 143.646 31.3507 143.691 31.3507H145.612C146.167 31.3156 146.688 31.0771 147.069 30.6835C147.449 30.29 147.661 29.7709 147.661 29.2317C147.661 28.6924 147.449 28.1734 147.069 27.7798C146.688 27.3863 146.167 27.1478 145.612 27.1127Z" fill="white"/>
<path d="M151.521 34.0334C151.521 34.6015 152.014 34.9351 152.874 34.9351C154.047 34.9351 154.735 34.3219 154.735 33.2309V32.9017L152.981 32.9919C152.06 33.0325 151.521 33.4022 151.521 34.0334Z" fill="white"/>
<path d="M165.762 22.036H139.922C139.067 22.0372 138.247 22.3674 137.642 22.9541C137.038 23.5407 136.698 24.3359 136.698 25.165V38.871C136.698 39.7001 137.038 40.4952 137.642 41.0819C138.247 41.6686 139.067 41.9987 139.922 41.9999H165.762C166.188 42.0035 166.61 41.9254 167.005 41.77C167.4 41.6146 167.759 41.3851 168.061 41.0947C168.364 40.8043 168.604 40.4587 168.769 40.0778C168.933 39.6969 169.018 39.2883 169.019 38.8755V25.1695C169.019 24.7559 168.935 24.3463 168.771 23.9644C168.608 23.5825 168.367 23.2358 168.065 22.9444C167.762 22.653 167.402 22.4227 167.007 22.2668C166.612 22.1109 166.189 22.0324 165.762 22.036ZM145.71 32.9017H143.677C143.631 32.9017 143.587 32.9192 143.555 32.9505C143.523 32.9818 143.505 33.0242 143.505 33.0685V35.8728C143.505 35.917 143.487 35.9595 143.454 35.9908C143.422 36.022 143.378 36.0396 143.333 36.0396H141.904C141.859 36.0396 141.815 36.022 141.783 35.9908C141.75 35.9595 141.732 35.917 141.732 35.8728V25.7466C141.732 25.7023 141.75 25.6599 141.783 25.6286C141.815 25.5973 141.859 25.5797 141.904 25.5797H145.71C146.711 25.5797 147.67 25.965 148.378 26.6507C149.086 27.3364 149.483 28.2664 149.483 29.2362C149.483 30.2059 149.086 31.136 148.378 31.8217C147.67 32.5074 146.711 32.8926 145.71 32.8926V32.9017ZM156.41 35.8683C156.415 35.8891 156.415 35.9106 156.41 35.9314C156.393 35.9722 156.36 36.0047 156.317 36.0216H156.252H154.903H154.838C154.796 36.0047 154.762 35.9722 154.745 35.9314C154.741 35.9106 154.741 35.8891 154.745 35.8683V35.5662C154.748 35.5397 154.742 35.513 154.727 35.4901C154.713 35.4673 154.691 35.4497 154.666 35.44C154.64 35.4297 154.611 35.4281 154.584 35.4354C154.557 35.4428 154.534 35.4587 154.517 35.4806C154.241 35.7413 153.91 35.9418 153.548 36.0685C153.185 36.1953 152.798 36.2454 152.414 36.2155C150.874 36.2155 149.855 35.44 149.855 34.0964C149.84 33.7693 149.91 33.4436 150.058 33.1492C150.206 32.8547 150.427 32.6007 150.702 32.4102C151.256 32.0044 152.098 31.7971 153.396 31.7475L154.75 31.7024V31.3191C154.75 30.5437 154.21 30.2146 153.354 30.2146C152.498 30.2146 151.958 30.5121 151.819 30.9945C151.809 31.0289 151.788 31.0591 151.758 31.0802C151.729 31.1016 151.693 31.1128 151.656 31.1118H150.297C150.272 31.1128 150.247 31.1084 150.224 31.0989C150.202 31.0894 150.181 31.075 150.165 31.0569C150.148 31.0387 150.136 31.0172 150.129 30.994C150.122 30.9707 150.121 30.9462 150.125 30.9224C150.325 29.7727 151.307 28.9026 153.382 28.9026C155.601 28.9026 156.401 29.9035 156.401 31.8106L156.41 35.8683ZM164.836 29.2948L161.831 37.0676C161.147 38.871 159.97 39.3218 158.639 39.3218C158.393 39.3278 158.146 39.2989 157.909 39.2362C157.872 39.2264 157.839 39.2054 157.816 39.1761C157.792 39.1468 157.779 39.111 157.778 39.0739V37.8926C157.773 37.8689 157.773 37.8443 157.778 37.8205C157.794 37.7861 157.822 37.7581 157.857 37.7409C157.891 37.7237 157.931 37.7184 157.969 37.7258C158.176 37.7643 158.386 37.7839 158.597 37.7844C158.959 37.8021 159.317 37.7016 159.613 37.4988C159.909 37.2961 160.126 37.003 160.23 36.6663L160.319 36.3958C160.332 36.3594 160.332 36.3194 160.319 36.2831L157.527 29.2858C157.521 29.2606 157.521 29.2343 157.527 29.2091C157.532 29.183 157.543 29.1583 157.56 29.137C157.575 29.116 157.596 29.099 157.62 29.0874C157.646 29.0815 157.673 29.0815 157.699 29.0874H159.067C159.102 29.0877 159.136 29.0982 159.165 29.1174C159.194 29.1367 159.217 29.1639 159.23 29.1956L161.137 34.155C161.15 34.1875 161.173 34.2153 161.202 34.235C161.232 34.2547 161.267 34.2652 161.302 34.2652C161.338 34.2652 161.373 34.2547 161.403 34.235C161.432 34.2153 161.455 34.1875 161.468 34.155L163.124 29.2317C163.136 29.1988 163.157 29.1702 163.187 29.15C163.216 29.1298 163.251 29.119 163.287 29.119H164.682C164.71 29.1191 164.736 29.1253 164.76 29.1371C164.785 29.1488 164.806 29.1657 164.822 29.1866C164.839 29.2079 164.85 29.2326 164.855 29.2587C164.861 29.2839 164.861 29.3102 164.855 29.3354L164.836 29.2948Z" fill="white"/>
</g>
<defs>
<clipPath id="clip0_45_4">
<rect width="87" height="20" fill="white" transform="translate(82 22)"/>
</clipPath>
</defs>
</svg>
