<svg width="350" height="52" viewBox="0 0 350 52" fill="none" xmlns="http://www.w3.org/2000/svg">
<rect width="350" height="52" fill="#592FF4"/>
<g clip-path="url(#clip0_62_3429)">
<path d="M156.287 22.7538C155.653 21.4757 154.449 20.6479 152.632 20.6479C152.075 20.6576 151.528 20.7899 151.033 21.0347C150.538 21.2796 150.108 21.6303 149.776 22.06L149.709 22.1371V17.1096C149.709 17.0805 149.697 17.0526 149.675 17.0321C149.654 17.0115 149.625 17 149.595 17H147.03C147.001 17.0011 146.973 17.0131 146.952 17.0335C146.932 17.0539 146.921 17.0812 146.921 17.1096V31.4982C146.921 31.5262 146.932 31.553 146.953 31.5728C146.973 31.5926 147.001 31.6037 147.03 31.6037H149.776C149.806 31.6037 149.834 31.5927 149.856 31.5731C149.877 31.5534 149.889 31.5265 149.89 31.4982V25.3629C149.876 25.0897 149.922 24.8167 150.026 24.5618C150.129 24.3069 150.288 24.076 150.491 23.8843C150.694 23.6926 150.937 23.5444 151.204 23.4496C151.472 23.3547 151.757 23.3154 152.041 23.3341C153.49 23.3341 153.853 24.4784 153.853 25.647V31.5063C153.853 31.5343 153.865 31.5611 153.885 31.5809C153.906 31.6007 153.934 31.6118 153.963 31.6118H156.705C156.734 31.6118 156.763 31.6008 156.784 31.5812C156.805 31.5615 156.818 31.5347 156.819 31.5063V25.298C156.824 25.0893 156.814 24.8805 156.789 24.6731C156.744 24.0094 156.574 23.3591 156.287 22.7538Z" fill="white"/>
<path d="M142.548 24.8761C142.548 24.8761 141.15 24.5596 140.634 24.4338C140.119 24.308 139.219 24.028 139.219 23.3828C139.219 22.7377 139.946 22.5186 140.681 22.5186C141.416 22.5186 142.236 22.689 142.299 23.4762C142.302 23.5041 142.316 23.53 142.338 23.5487C142.36 23.5675 142.388 23.5778 142.417 23.5776H145.125H145.172L145.21 23.5533C145.221 23.5419 145.229 23.5284 145.234 23.5137C145.239 23.499 145.241 23.4835 145.239 23.4681C145.07 20.9563 142.776 20.0596 140.66 20.0596C138.15 20.0596 136.317 21.6502 136.317 23.4031C136.317 24.6813 136.693 25.8824 139.654 26.7183C140.174 26.8644 140.879 27.051 141.496 27.2174C142.236 27.4162 142.637 27.7165 142.637 28.1872C142.637 28.735 141.792 29.1164 140.998 29.1164C139.819 29.1164 138.983 28.7106 138.915 27.9437C138.911 27.9165 138.897 27.8916 138.875 27.8737C138.853 27.8558 138.825 27.846 138.797 27.8463H136.093H136.046L136.008 27.8707C135.998 27.8814 135.989 27.8941 135.983 27.908C135.977 27.9219 135.974 27.9368 135.975 27.9518C136.097 30.3215 138.484 31.6038 140.706 31.6038C144.018 31.6038 145.514 29.8143 145.514 28.1385C145.539 27.3513 145.353 25.5578 142.548 24.8761Z" fill="white"/>
<path d="M177.41 20.6318C176.773 20.6517 176.149 20.8077 175.584 21.0885C175.018 21.3692 174.525 21.7677 174.14 22.2549V20.7251C174.14 20.6972 174.128 20.6703 174.108 20.6505C174.087 20.6308 174.059 20.6196 174.03 20.6196H171.461C171.432 20.6196 171.404 20.6308 171.384 20.6505C171.363 20.6703 171.351 20.6972 171.351 20.7251V34.846C171.351 34.8739 171.363 34.9008 171.384 34.9206C171.404 34.9404 171.432 34.9515 171.461 34.9515H174.212C174.241 34.9515 174.269 34.9404 174.289 34.9206C174.31 34.9008 174.321 34.8739 174.321 34.846V30.208H174.364C174.746 30.6637 175.232 31.028 175.786 31.2723C176.339 31.5166 176.944 31.6343 177.553 31.616C180.485 31.616 182.931 29.2788 182.931 26.1219C182.947 25.4123 182.817 24.7067 182.548 24.0457C182.278 23.3848 181.875 22.7816 181.362 22.2712C180.849 21.7607 180.235 21.353 179.557 21.0716C178.878 20.7902 178.148 20.6407 177.41 20.6318ZM177.156 28.9258C176.577 28.9395 176.007 28.7871 175.518 28.4881C175.029 28.1891 174.645 27.757 174.413 27.247C174.181 26.737 174.113 26.1722 174.217 25.6247C174.32 25.0773 174.592 24.572 174.996 24.1733C175.4 23.7747 175.919 23.5008 176.486 23.3866C177.053 23.2724 177.643 23.3231 178.18 23.5322C178.716 23.7413 179.176 24.0993 179.5 24.5606C179.825 25.0218 179.998 25.5654 179.999 26.1219C180.005 26.4854 179.936 26.8465 179.796 27.1843C179.656 27.5222 179.448 27.8302 179.184 28.0906C178.919 28.3511 178.604 28.559 178.256 28.7023C177.909 28.8456 177.535 28.9215 177.156 28.9258Z" fill="white"/>
<path d="M163.211 20.0107C161.454 19.9674 159.736 20.5062 158.344 21.5364H158.314C158.261 21.5712 158.224 21.624 158.21 21.6843C158.195 21.7446 158.206 21.8078 158.238 21.861L159.252 23.5369C159.272 23.5681 159.298 23.5948 159.329 23.6152C159.361 23.6355 159.396 23.649 159.434 23.6545C159.47 23.6611 159.508 23.6597 159.544 23.6506C159.579 23.6415 159.613 23.6248 159.641 23.6018L159.721 23.5369C160.249 23.1311 161.094 22.5427 163.143 22.3885C163.654 22.3276 164.173 22.3721 164.665 22.519C165.156 22.666 165.61 22.912 165.995 23.2407C166.41 23.6414 166.736 24.1188 166.954 24.6439C167.172 25.169 167.276 25.731 167.262 26.2961C167.262 28.5157 165.902 29.9115 163.713 29.9481C161.909 29.9481 160.701 29.0351 160.701 27.7041C160.705 27.3749 160.798 27.0523 160.97 26.7678C161.143 26.4833 161.389 26.2467 161.686 26.0811C161.734 26.0468 161.769 25.9969 161.783 25.9404C161.797 25.8838 161.789 25.8243 161.762 25.7727L160.853 24.1212C160.836 24.0917 160.813 24.0658 160.786 24.0449C160.758 24.024 160.727 24.0086 160.693 23.9995C160.658 23.9894 160.622 23.9864 160.587 23.9906C160.551 23.9948 160.517 24.0061 160.486 24.0238C159.789 24.372 159.21 24.9049 158.818 25.5594C158.427 26.2138 158.239 26.9624 158.276 27.7163C158.361 30.3214 160.612 32.3096 163.544 32.3908H163.891C164.698 32.3896 165.497 32.2324 166.24 31.9285C166.984 31.6246 167.655 31.1802 168.216 30.6218C168.776 30.0633 169.214 29.4023 169.503 28.678C169.792 27.9536 169.926 27.1809 169.898 26.4057C169.898 23.3218 167.554 20.0107 163.211 20.0107Z" fill="white"/>
<path d="M193.763 21.6016H192.018C191.977 21.6016 191.937 21.6174 191.908 21.6455C191.878 21.6737 191.862 21.7119 191.862 21.7517V25.2697C191.863 25.3088 191.88 25.346 191.909 25.3733C191.938 25.4006 191.977 25.4158 192.018 25.4158H193.763C194.267 25.3842 194.74 25.1695 195.085 24.8153C195.431 24.4612 195.623 23.994 195.623 23.5087C195.623 23.0233 195.431 22.5562 195.085 22.202C194.74 21.8478 194.267 21.6332 193.763 21.6016Z" fill="white"/>
<path d="M199.128 27.83C199.128 28.3413 199.576 28.6416 200.358 28.6416C201.422 28.6416 202.047 28.0897 202.047 27.1077V26.8115L200.455 26.8927C199.618 26.9292 199.128 27.2619 199.128 27.83Z" fill="white"/>
<path d="M212.06 17.0323H188.596C187.819 17.0334 187.075 17.3306 186.526 17.8586C185.977 18.3866 185.669 19.1022 185.669 19.8484V32.1838C185.669 32.93 185.977 33.6456 186.526 34.1736C187.075 34.7016 187.819 34.9988 188.596 34.9999H212.06C212.447 35.0031 212.83 34.9327 213.188 34.7929C213.547 34.6531 213.873 34.4465 214.148 34.1852C214.423 33.9238 214.641 33.6127 214.79 33.2699C214.939 32.9272 215.016 32.5594 215.017 32.1879V19.8524C215.017 19.4802 214.941 19.1116 214.793 18.7679C214.644 18.4242 214.426 18.1122 214.151 17.8499C213.876 17.5877 213.549 17.3804 213.19 17.24C212.832 17.0997 212.447 17.0291 212.06 17.0323ZM193.852 26.8114H192.006C191.964 26.8114 191.924 26.8272 191.895 26.8554C191.866 26.8835 191.849 26.9217 191.849 26.9615V29.4854C191.849 29.5253 191.833 29.5634 191.803 29.5916C191.774 29.6198 191.734 29.6356 191.693 29.6356H190.396C190.355 29.6356 190.315 29.6198 190.285 29.5916C190.256 29.5634 190.24 29.5253 190.24 29.4854V20.3718C190.24 20.332 190.256 20.2938 190.285 20.2657C190.315 20.2375 190.355 20.2217 190.396 20.2217H193.852C194.76 20.2217 195.632 20.5684 196.274 21.1856C196.917 21.8027 197.278 22.6397 197.278 23.5125C197.278 24.3853 196.917 25.2223 196.274 25.8394C195.632 26.4566 194.76 26.8033 193.852 26.8033V26.8114ZM203.568 29.4814C203.572 29.5002 203.572 29.5194 203.568 29.5382C203.552 29.5749 203.522 29.6041 203.484 29.6194H203.425H202.199H202.14C202.102 29.6041 202.072 29.5749 202.056 29.5382C202.052 29.5194 202.052 29.5001 202.056 29.4814V29.2095C202.058 29.1856 202.053 29.1616 202.04 29.1411C202.027 29.1205 202.007 29.1047 201.984 29.0959C201.96 29.0866 201.934 29.0852 201.91 29.0918C201.885 29.0984 201.864 29.1127 201.849 29.1324C201.598 29.3671 201.298 29.5475 200.969 29.6616C200.639 29.7757 200.288 29.8208 199.939 29.7938C198.541 29.7938 197.616 29.0959 197.616 27.8867C197.602 27.5923 197.665 27.2992 197.8 27.0342C197.934 26.7691 198.135 26.5405 198.385 26.3691C198.887 26.0039 199.652 25.8173 200.831 25.7726L202.06 25.7321V25.3872C202.06 24.6892 201.57 24.393 200.793 24.393C200.015 24.393 199.525 24.6608 199.399 25.095C199.39 25.1259 199.37 25.1531 199.344 25.1721C199.317 25.1914 199.284 25.2014 199.251 25.2005H198.017C197.994 25.2014 197.972 25.1975 197.951 25.1889C197.93 25.1804 197.912 25.1675 197.897 25.1511C197.882 25.1348 197.871 25.1154 197.864 25.0945C197.858 25.0735 197.857 25.0515 197.861 25.0301C198.042 23.9954 198.934 23.2122 200.818 23.2122C202.833 23.2122 203.56 24.113 203.56 25.8294L203.568 29.4814ZM211.219 23.5652L208.49 30.5607C207.869 32.1838 206.8 32.5896 205.592 32.5896C205.368 32.5949 205.145 32.569 204.929 32.5125C204.895 32.5037 204.865 32.4847 204.844 32.4584C204.823 32.4321 204.811 32.3998 204.81 32.3664V31.3033C204.805 31.2819 204.805 31.2598 204.81 31.2384C204.825 31.2075 204.85 31.1822 204.881 31.1667C204.913 31.1512 204.949 31.1465 204.984 31.1532C205.171 31.1878 205.362 31.2054 205.554 31.2059C205.883 31.2218 206.207 31.1313 206.476 30.9489C206.745 30.7664 206.942 30.5026 207.037 30.1996L207.117 29.9561C207.13 29.9234 207.13 29.8874 207.117 29.8547L204.582 23.5571C204.576 23.5345 204.576 23.5108 204.582 23.4881C204.587 23.4646 204.597 23.4424 204.612 23.4232C204.626 23.4043 204.645 23.389 204.667 23.3786C204.69 23.3732 204.715 23.3732 204.738 23.3786H205.981C206.012 23.3789 206.044 23.3883 206.07 23.4056C206.096 23.423 206.117 23.4475 206.128 23.476L207.86 27.9395C207.872 27.9686 207.893 27.9937 207.919 28.0115C207.946 28.0292 207.978 28.0386 208.01 28.0386C208.043 28.0386 208.075 28.0292 208.101 28.0115C208.128 27.9937 208.149 27.9686 208.16 27.9395L209.664 23.5084C209.675 23.4788 209.695 23.4532 209.721 23.435C209.748 23.4168 209.78 23.407 209.812 23.407H211.08C211.104 23.4071 211.128 23.4127 211.15 23.4233C211.172 23.4338 211.191 23.4491 211.206 23.4679C211.221 23.487 211.231 23.5092 211.236 23.5328C211.241 23.5555 211.241 23.5791 211.236 23.6018L211.219 23.5652Z" fill="white"/>
</g>
<defs>
<clipPath id="clip0_62_3429">
<rect width="79" height="18" fill="white" transform="translate(136 17)"/>
</clipPath>
</defs>
</svg>
